<mxfile host="app.diagrams.net" modified="2022-05-16T15:18:22.198Z" agent="5.0 (Macintosh; Intel Mac OS X 10_15_7) AppleWebKit/605.1.15 (KHTML, like Gecko) Version/15.4 Safari/605.1.15" etag="-BON2_cYVBNAMRtXS_Cr" version="18.0.5" type="github">
  <diagram id="ySFJeYouwfIqecCgFOsG" name="Page-1">
    <mxGraphModel dx="3423" dy="1730" grid="1" gridSize="10" guides="1" tooltips="1" connect="1" arrows="1" fold="1" page="1" pageScale="1" pageWidth="827" pageHeight="1169" math="0" shadow="0">
      <root>
        <mxCell id="0" />
        <mxCell id="1" parent="0" />
        <mxCell id="vEQTfBxCxNn2xn9pjMhN-1" value="C++" style="ellipse;whiteSpace=wrap;html=1;aspect=fixed;" vertex="1" parent="1">
          <mxGeometry x="120" y="160" width="80" height="80" as="geometry" />
        </mxCell>
        <mxCell id="vEQTfBxCxNn2xn9pjMhN-2" value="Python" style="ellipse;whiteSpace=wrap;html=1;aspect=fixed;" vertex="1" parent="1">
          <mxGeometry x="280" y="160" width="80" height="80" as="geometry" />
        </mxCell>
        <mxCell id="vEQTfBxCxNn2xn9pjMhN-3" value="Java" style="ellipse;whiteSpace=wrap;html=1;aspect=fixed;" vertex="1" parent="1">
          <mxGeometry x="440" y="160" width="80" height="80" as="geometry" />
        </mxCell>
        <mxCell id="vEQTfBxCxNn2xn9pjMhN-4" value="C" style="ellipse;whiteSpace=wrap;html=1;aspect=fixed;" vertex="1" parent="1">
          <mxGeometry x="600" y="160" width="80" height="80" as="geometry" />
        </mxCell>
        <mxCell id="vEQTfBxCxNn2xn9pjMhN-6" value="Objective-C" style="ellipse;whiteSpace=wrap;html=1;aspect=fixed;" vertex="1" parent="1">
          <mxGeometry x="760" y="160" width="80" height="80" as="geometry" />
        </mxCell>
        <mxCell id="vEQTfBxCxNn2xn9pjMhN-7" value="JavaScript" style="ellipse;whiteSpace=wrap;html=1;aspect=fixed;" vertex="1" parent="1">
          <mxGeometry x="920" y="160" width="80" height="80" as="geometry" />
        </mxCell>
        <mxCell id="vEQTfBxCxNn2xn9pjMhN-8" value="Ruby" style="ellipse;whiteSpace=wrap;html=1;aspect=fixed;" vertex="1" parent="1">
          <mxGeometry x="1080" y="160" width="80" height="80" as="geometry" />
        </mxCell>
        <mxCell id="vEQTfBxCxNn2xn9pjMhN-9" value="PHP" style="ellipse;whiteSpace=wrap;html=1;aspect=fixed;" vertex="1" parent="1">
          <mxGeometry x="1240.5" y="160" width="80" height="80" as="geometry" />
        </mxCell>
        <mxCell id="vEQTfBxCxNn2xn9pjMhN-10" value="C#" style="ellipse;whiteSpace=wrap;html=1;aspect=fixed;" vertex="1" parent="1">
          <mxGeometry x="1400" y="160" width="80" height="80" as="geometry" />
        </mxCell>
        <mxCell id="vEQTfBxCxNn2xn9pjMhN-12" value="OR" style="ellipse;whiteSpace=wrap;html=1;aspect=fixed;" vertex="1" parent="1">
          <mxGeometry x="140" y="280" width="40" height="40" as="geometry" />
        </mxCell>
        <mxCell id="vEQTfBxCxNn2xn9pjMhN-13" value="" style="endArrow=none;html=1;rounded=0;entryX=0.5;entryY=1;entryDx=0;entryDy=0;exitX=0.5;exitY=0;exitDx=0;exitDy=0;" edge="1" parent="1" source="vEQTfBxCxNn2xn9pjMhN-12" target="vEQTfBxCxNn2xn9pjMhN-1">
          <mxGeometry width="50" height="50" relative="1" as="geometry">
            <mxPoint x="70" y="340" as="sourcePoint" />
            <mxPoint x="120" y="290" as="targetPoint" />
          </mxGeometry>
        </mxCell>
        <mxCell id="vEQTfBxCxNn2xn9pjMhN-15" value="want-to-study=4" style="ellipse;whiteSpace=wrap;html=1;aspect=fixed;" vertex="1" parent="1">
          <mxGeometry x="-320" y="360" width="80" height="80" as="geometry" />
        </mxCell>
        <mxCell id="vEQTfBxCxNn2xn9pjMhN-16" value="platform-segment=1" style="ellipse;whiteSpace=wrap;html=1;aspect=fixed;" vertex="1" parent="1">
          <mxGeometry x="-560" y="360" width="80" height="80" as="geometry" />
        </mxCell>
        <mxCell id="vEQTfBxCxNn2xn9pjMhN-17" value="work-platform-segment=6" style="ellipse;whiteSpace=wrap;html=1;aspect=fixed;" vertex="1" parent="1">
          <mxGeometry x="-680" y="360" width="80" height="80" as="geometry" />
        </mxCell>
        <mxCell id="vEQTfBxCxNn2xn9pjMhN-18" value="" style="endArrow=none;html=1;rounded=0;entryX=0.5;entryY=1;entryDx=0;entryDy=0;exitX=0.5;exitY=0;exitDx=0;exitDy=0;" edge="1" parent="1" source="vEQTfBxCxNn2xn9pjMhN-15" target="vEQTfBxCxNn2xn9pjMhN-12">
          <mxGeometry width="50" height="50" relative="1" as="geometry">
            <mxPoint x="240" y="470" as="sourcePoint" />
            <mxPoint x="290" y="420" as="targetPoint" />
            <Array as="points" />
          </mxGeometry>
        </mxCell>
        <mxCell id="vEQTfBxCxNn2xn9pjMhN-19" value="" style="endArrow=none;html=1;rounded=0;exitX=0.5;exitY=0;exitDx=0;exitDy=0;entryX=0.5;entryY=1;entryDx=0;entryDy=0;" edge="1" parent="1" source="vEQTfBxCxNn2xn9pjMhN-16" target="vEQTfBxCxNn2xn9pjMhN-12">
          <mxGeometry width="50" height="50" relative="1" as="geometry">
            <mxPoint x="50" y="325" as="sourcePoint" />
            <mxPoint x="100" y="275" as="targetPoint" />
          </mxGeometry>
        </mxCell>
        <mxCell id="vEQTfBxCxNn2xn9pjMhN-20" value="" style="endArrow=none;html=1;rounded=0;entryX=0.5;entryY=1;entryDx=0;entryDy=0;exitX=0.5;exitY=0;exitDx=0;exitDy=0;" edge="1" parent="1" source="vEQTfBxCxNn2xn9pjMhN-17" target="vEQTfBxCxNn2xn9pjMhN-12">
          <mxGeometry width="50" height="50" relative="1" as="geometry">
            <mxPoint x="240" y="470" as="sourcePoint" />
            <mxPoint x="290" y="420" as="targetPoint" />
          </mxGeometry>
        </mxCell>
        <mxCell id="vEQTfBxCxNn2xn9pjMhN-21" value="OR" style="ellipse;whiteSpace=wrap;html=1;aspect=fixed;" vertex="1" parent="1">
          <mxGeometry x="300" y="280" width="40" height="40" as="geometry" />
        </mxCell>
        <mxCell id="vEQTfBxCxNn2xn9pjMhN-22" value="start-with-scratch=ok" style="ellipse;whiteSpace=wrap;html=1;aspect=fixed;" vertex="1" parent="1">
          <mxGeometry x="-440" y="360" width="80" height="80" as="geometry" />
        </mxCell>
        <mxCell id="vEQTfBxCxNn2xn9pjMhN-23" value="want-learn-programming=6" style="ellipse;whiteSpace=wrap;html=1;aspect=fixed;" vertex="1" parent="1">
          <mxGeometry x="270" y="1420" width="80" height="80" as="geometry" />
        </mxCell>
        <mxCell id="vEQTfBxCxNn2xn9pjMhN-24" value="" style="endArrow=none;html=1;rounded=0;exitX=0.5;exitY=0;exitDx=0;exitDy=0;entryX=0.5;entryY=1;entryDx=0;entryDy=0;" edge="1" parent="1" source="vEQTfBxCxNn2xn9pjMhN-22" target="vEQTfBxCxNn2xn9pjMhN-21">
          <mxGeometry width="50" height="50" relative="1" as="geometry">
            <mxPoint x="500" y="480" as="sourcePoint" />
            <mxPoint x="550" y="430" as="targetPoint" />
          </mxGeometry>
        </mxCell>
        <mxCell id="vEQTfBxCxNn2xn9pjMhN-25" value="" style="endArrow=none;html=1;rounded=0;entryX=0.5;entryY=1;entryDx=0;entryDy=0;exitX=0.5;exitY=0;exitDx=0;exitDy=0;" edge="1" parent="1" source="vEQTfBxCxNn2xn9pjMhN-21" target="vEQTfBxCxNn2xn9pjMhN-2">
          <mxGeometry width="50" height="50" relative="1" as="geometry">
            <mxPoint x="500" y="480" as="sourcePoint" />
            <mxPoint x="550" y="430" as="targetPoint" />
          </mxGeometry>
        </mxCell>
        <mxCell id="vEQTfBxCxNn2xn9pjMhN-26" value="want-to-study=1" style="ellipse;whiteSpace=wrap;html=1;aspect=fixed;" vertex="1" parent="1">
          <mxGeometry x="-80" y="360" width="80" height="80" as="geometry" />
        </mxCell>
        <mxCell id="vEQTfBxCxNn2xn9pjMhN-27" value="want-to-study=3" style="ellipse;whiteSpace=wrap;html=1;aspect=fixed;" vertex="1" parent="1">
          <mxGeometry x="40" y="360" width="80" height="80" as="geometry" />
        </mxCell>
        <mxCell id="vEQTfBxCxNn2xn9pjMhN-28" value="" style="endArrow=none;html=1;rounded=0;exitX=0.5;exitY=0;exitDx=0;exitDy=0;entryX=0.5;entryY=1;entryDx=0;entryDy=0;" edge="1" parent="1" source="vEQTfBxCxNn2xn9pjMhN-23" target="vEQTfBxCxNn2xn9pjMhN-21">
          <mxGeometry width="50" height="50" relative="1" as="geometry">
            <mxPoint x="500" y="480" as="sourcePoint" />
            <mxPoint x="550" y="430" as="targetPoint" />
          </mxGeometry>
        </mxCell>
        <mxCell id="vEQTfBxCxNn2xn9pjMhN-29" value="" style="endArrow=none;html=1;rounded=0;exitX=0.5;exitY=0;exitDx=0;exitDy=0;entryX=0.5;entryY=1;entryDx=0;entryDy=0;" edge="1" parent="1" source="vEQTfBxCxNn2xn9pjMhN-26" target="vEQTfBxCxNn2xn9pjMhN-21">
          <mxGeometry width="50" height="50" relative="1" as="geometry">
            <mxPoint x="500" y="480" as="sourcePoint" />
            <mxPoint x="550" y="430" as="targetPoint" />
          </mxGeometry>
        </mxCell>
        <mxCell id="vEQTfBxCxNn2xn9pjMhN-30" value="" style="endArrow=none;html=1;rounded=0;exitX=0.5;exitY=0;exitDx=0;exitDy=0;entryX=0.5;entryY=1;entryDx=0;entryDy=0;" edge="1" parent="1" source="vEQTfBxCxNn2xn9pjMhN-27" target="vEQTfBxCxNn2xn9pjMhN-21">
          <mxGeometry width="50" height="50" relative="1" as="geometry">
            <mxPoint x="500" y="480" as="sourcePoint" />
            <mxPoint x="550" y="430" as="targetPoint" />
          </mxGeometry>
        </mxCell>
        <mxCell id="vEQTfBxCxNn2xn9pjMhN-31" value="favorite-game=1" style="ellipse;whiteSpace=wrap;html=1;aspect=fixed;" vertex="1" parent="1">
          <mxGeometry x="160" y="360" width="80" height="80" as="geometry" />
        </mxCell>
        <mxCell id="vEQTfBxCxNn2xn9pjMhN-32" value="high-tech-companies=1" style="ellipse;whiteSpace=wrap;html=1;aspect=fixed;" vertex="1" parent="1">
          <mxGeometry x="-200" y="360" width="80" height="80" as="geometry" />
        </mxCell>
        <mxCell id="vEQTfBxCxNn2xn9pjMhN-33" value="" style="endArrow=none;html=1;rounded=0;entryX=0.5;entryY=0;entryDx=0;entryDy=0;exitX=0.5;exitY=1;exitDx=0;exitDy=0;" edge="1" parent="1" source="vEQTfBxCxNn2xn9pjMhN-21" target="vEQTfBxCxNn2xn9pjMhN-31">
          <mxGeometry width="50" height="50" relative="1" as="geometry">
            <mxPoint x="390" y="480" as="sourcePoint" />
            <mxPoint x="440" y="430" as="targetPoint" />
          </mxGeometry>
        </mxCell>
        <mxCell id="vEQTfBxCxNn2xn9pjMhN-34" value="" style="endArrow=none;html=1;rounded=0;entryX=0.5;entryY=0;entryDx=0;entryDy=0;exitX=0.5;exitY=1;exitDx=0;exitDy=0;" edge="1" parent="1" source="vEQTfBxCxNn2xn9pjMhN-21" target="vEQTfBxCxNn2xn9pjMhN-32">
          <mxGeometry width="50" height="50" relative="1" as="geometry">
            <mxPoint x="390" y="480" as="sourcePoint" />
            <mxPoint x="440" y="430" as="targetPoint" />
          </mxGeometry>
        </mxCell>
        <mxCell id="vEQTfBxCxNn2xn9pjMhN-35" value="OR" style="ellipse;whiteSpace=wrap;html=1;aspect=fixed;" vertex="1" parent="1">
          <mxGeometry x="460" y="280" width="40" height="40" as="geometry" />
        </mxCell>
        <mxCell id="vEQTfBxCxNn2xn9pjMhN-36" value="" style="endArrow=none;html=1;rounded=0;entryX=0.5;entryY=1;entryDx=0;entryDy=0;exitX=0.5;exitY=0;exitDx=0;exitDy=0;" edge="1" parent="1" source="vEQTfBxCxNn2xn9pjMhN-35" target="vEQTfBxCxNn2xn9pjMhN-3">
          <mxGeometry width="50" height="50" relative="1" as="geometry">
            <mxPoint x="590" y="480" as="sourcePoint" />
            <mxPoint x="640" y="430" as="targetPoint" />
          </mxGeometry>
        </mxCell>
        <mxCell id="vEQTfBxCxNn2xn9pjMhN-37" value="transmission-car-have=1" style="ellipse;whiteSpace=wrap;html=1;aspect=fixed;" vertex="1" parent="1">
          <mxGeometry x="520" y="360" width="80" height="80" as="geometry" />
        </mxCell>
        <mxCell id="vEQTfBxCxNn2xn9pjMhN-38" value="mobile-os=2" style="ellipse;whiteSpace=wrap;html=1;aspect=fixed;" vertex="1" parent="1">
          <mxGeometry x="640" y="360" width="80" height="80" as="geometry" />
        </mxCell>
        <mxCell id="vEQTfBxCxNn2xn9pjMhN-39" value="about-microsoft=2" style="ellipse;whiteSpace=wrap;html=1;aspect=fixed;" vertex="1" parent="1">
          <mxGeometry x="760" y="360" width="80" height="80" as="geometry" />
        </mxCell>
        <mxCell id="vEQTfBxCxNn2xn9pjMhN-40" value="high-tech-companies=3" style="ellipse;whiteSpace=wrap;html=1;aspect=fixed;" vertex="1" parent="1">
          <mxGeometry x="400" y="360" width="80" height="80" as="geometry" />
        </mxCell>
        <mxCell id="vEQTfBxCxNn2xn9pjMhN-41" value="" style="endArrow=none;html=1;rounded=0;entryX=0.5;entryY=0;entryDx=0;entryDy=0;exitX=0.5;exitY=1;exitDx=0;exitDy=0;" edge="1" parent="1" source="vEQTfBxCxNn2xn9pjMhN-21" target="vEQTfBxCxNn2xn9pjMhN-40">
          <mxGeometry width="50" height="50" relative="1" as="geometry">
            <mxPoint x="590" y="480" as="sourcePoint" />
            <mxPoint x="640" y="430" as="targetPoint" />
          </mxGeometry>
        </mxCell>
        <mxCell id="vEQTfBxCxNn2xn9pjMhN-42" value="about-microsoft=3" style="ellipse;whiteSpace=wrap;html=1;aspect=fixed;" vertex="1" parent="1">
          <mxGeometry x="880" y="360" width="80" height="80" as="geometry" />
        </mxCell>
        <mxCell id="vEQTfBxCxNn2xn9pjMhN-43" value="work-platform-segment=1" style="ellipse;whiteSpace=wrap;html=1;aspect=fixed;" vertex="1" parent="1">
          <mxGeometry x="1001" y="360" width="80" height="80" as="geometry" />
        </mxCell>
        <mxCell id="vEQTfBxCxNn2xn9pjMhN-44" value="" style="endArrow=none;html=1;rounded=0;exitX=0.5;exitY=0;exitDx=0;exitDy=0;entryX=0.5;entryY=1;entryDx=0;entryDy=0;" edge="1" parent="1" source="vEQTfBxCxNn2xn9pjMhN-37" target="vEQTfBxCxNn2xn9pjMhN-35">
          <mxGeometry width="50" height="50" relative="1" as="geometry">
            <mxPoint x="850" y="480" as="sourcePoint" />
            <mxPoint x="900" y="430" as="targetPoint" />
          </mxGeometry>
        </mxCell>
        <mxCell id="vEQTfBxCxNn2xn9pjMhN-45" value="" style="endArrow=none;html=1;rounded=0;entryX=0.5;entryY=0;entryDx=0;entryDy=0;exitX=0.5;exitY=1;exitDx=0;exitDy=0;" edge="1" parent="1" source="vEQTfBxCxNn2xn9pjMhN-35" target="vEQTfBxCxNn2xn9pjMhN-38">
          <mxGeometry width="50" height="50" relative="1" as="geometry">
            <mxPoint x="850" y="480" as="sourcePoint" />
            <mxPoint x="900" y="430" as="targetPoint" />
          </mxGeometry>
        </mxCell>
        <mxCell id="vEQTfBxCxNn2xn9pjMhN-46" value="" style="endArrow=none;html=1;rounded=0;entryX=0.5;entryY=0;entryDx=0;entryDy=0;exitX=0.5;exitY=1;exitDx=0;exitDy=0;" edge="1" parent="1" source="vEQTfBxCxNn2xn9pjMhN-35" target="vEQTfBxCxNn2xn9pjMhN-39">
          <mxGeometry width="50" height="50" relative="1" as="geometry">
            <mxPoint x="850" y="480" as="sourcePoint" />
            <mxPoint x="900" y="430" as="targetPoint" />
          </mxGeometry>
        </mxCell>
        <mxCell id="vEQTfBxCxNn2xn9pjMhN-47" value="" style="endArrow=none;html=1;rounded=0;entryX=0.5;entryY=0;entryDx=0;entryDy=0;exitX=0.5;exitY=1;exitDx=0;exitDy=0;" edge="1" parent="1" source="vEQTfBxCxNn2xn9pjMhN-35" target="vEQTfBxCxNn2xn9pjMhN-42">
          <mxGeometry width="50" height="50" relative="1" as="geometry">
            <mxPoint x="850" y="480" as="sourcePoint" />
            <mxPoint x="900" y="430" as="targetPoint" />
          </mxGeometry>
        </mxCell>
        <mxCell id="vEQTfBxCxNn2xn9pjMhN-48" value="" style="endArrow=none;html=1;rounded=0;entryX=0.5;entryY=0;entryDx=0;entryDy=0;exitX=0.5;exitY=1;exitDx=0;exitDy=0;" edge="1" parent="1" source="vEQTfBxCxNn2xn9pjMhN-35" target="vEQTfBxCxNn2xn9pjMhN-43">
          <mxGeometry width="50" height="50" relative="1" as="geometry">
            <mxPoint x="850" y="480" as="sourcePoint" />
            <mxPoint x="900" y="430" as="targetPoint" />
          </mxGeometry>
        </mxCell>
        <mxCell id="vEQTfBxCxNn2xn9pjMhN-50" value="transmission-car-have=2" style="ellipse;whiteSpace=wrap;html=1;aspect=fixed;" vertex="1" parent="1">
          <mxGeometry x="1120" y="360" width="80" height="80" as="geometry" />
        </mxCell>
        <mxCell id="vEQTfBxCxNn2xn9pjMhN-51" value="" style="endArrow=none;html=1;rounded=0;entryX=0.5;entryY=0;entryDx=0;entryDy=0;exitX=0.5;exitY=1;exitDx=0;exitDy=0;" edge="1" parent="1" source="vEQTfBxCxNn2xn9pjMhN-4" target="vEQTfBxCxNn2xn9pjMhN-50">
          <mxGeometry width="50" height="50" relative="1" as="geometry">
            <mxPoint x="850" y="480" as="sourcePoint" />
            <mxPoint x="900" y="430" as="targetPoint" />
          </mxGeometry>
        </mxCell>
        <mxCell id="vEQTfBxCxNn2xn9pjMhN-52" value="OR" style="ellipse;whiteSpace=wrap;html=1;aspect=fixed;" vertex="1" parent="1">
          <mxGeometry x="780" y="280" width="40" height="40" as="geometry" />
        </mxCell>
        <mxCell id="vEQTfBxCxNn2xn9pjMhN-53" value="OR" style="ellipse;whiteSpace=wrap;html=1;aspect=fixed;" vertex="1" parent="1">
          <mxGeometry x="940" y="280" width="40" height="40" as="geometry" />
        </mxCell>
        <mxCell id="vEQTfBxCxNn2xn9pjMhN-54" value="OR" style="ellipse;whiteSpace=wrap;html=1;aspect=fixed;" vertex="1" parent="1">
          <mxGeometry x="1420" y="280" width="40" height="40" as="geometry" />
        </mxCell>
        <mxCell id="vEQTfBxCxNn2xn9pjMhN-56" value="mobile-os=1" style="ellipse;whiteSpace=wrap;html=1;aspect=fixed;" vertex="1" parent="1">
          <mxGeometry x="1240.5" y="360" width="80" height="80" as="geometry" />
        </mxCell>
        <mxCell id="vEQTfBxCxNn2xn9pjMhN-57" value="high-tech-companies=4" style="ellipse;whiteSpace=wrap;html=1;aspect=fixed;" vertex="1" parent="1">
          <mxGeometry x="1360" y="360" width="80" height="80" as="geometry" />
        </mxCell>
        <mxCell id="vEQTfBxCxNn2xn9pjMhN-58" value="" style="endArrow=none;html=1;rounded=0;exitX=0.5;exitY=0;exitDx=0;exitDy=0;entryX=0.5;entryY=1;entryDx=0;entryDy=0;" edge="1" parent="1" source="vEQTfBxCxNn2xn9pjMhN-52" target="vEQTfBxCxNn2xn9pjMhN-6">
          <mxGeometry width="50" height="50" relative="1" as="geometry">
            <mxPoint x="860" y="470" as="sourcePoint" />
            <mxPoint x="910" y="420" as="targetPoint" />
          </mxGeometry>
        </mxCell>
        <mxCell id="vEQTfBxCxNn2xn9pjMhN-59" value="" style="endArrow=none;html=1;rounded=0;entryX=0.5;entryY=1;entryDx=0;entryDy=0;exitX=0.5;exitY=0;exitDx=0;exitDy=0;" edge="1" parent="1" source="vEQTfBxCxNn2xn9pjMhN-56" target="vEQTfBxCxNn2xn9pjMhN-52">
          <mxGeometry width="50" height="50" relative="1" as="geometry">
            <mxPoint x="860" y="470" as="sourcePoint" />
            <mxPoint x="910" y="420" as="targetPoint" />
          </mxGeometry>
        </mxCell>
        <mxCell id="vEQTfBxCxNn2xn9pjMhN-60" value="" style="endArrow=none;html=1;rounded=0;entryX=0.5;entryY=1;entryDx=0;entryDy=0;exitX=0.5;exitY=0;exitDx=0;exitDy=0;" edge="1" parent="1" source="vEQTfBxCxNn2xn9pjMhN-57" target="vEQTfBxCxNn2xn9pjMhN-52">
          <mxGeometry width="50" height="50" relative="1" as="geometry">
            <mxPoint x="860" y="470" as="sourcePoint" />
            <mxPoint x="910" y="420" as="targetPoint" />
          </mxGeometry>
        </mxCell>
        <mxCell id="vEQTfBxCxNn2xn9pjMhN-61" value="app-work-realtime=yes" style="ellipse;whiteSpace=wrap;html=1;aspect=fixed;" vertex="1" parent="1">
          <mxGeometry x="1480" y="360" width="80" height="80" as="geometry" />
        </mxCell>
        <mxCell id="vEQTfBxCxNn2xn9pjMhN-62" value="new-solution-with-great-potential=1" style="ellipse;whiteSpace=wrap;html=1;aspect=fixed;" vertex="1" parent="1">
          <mxGeometry x="1600" y="360" width="80" height="80" as="geometry" />
        </mxCell>
        <mxCell id="vEQTfBxCxNn2xn9pjMhN-63" value="work-web=2" style="ellipse;whiteSpace=wrap;html=1;aspect=fixed;" vertex="1" parent="1">
          <mxGeometry x="1720" y="360" width="80" height="80" as="geometry" />
        </mxCell>
        <mxCell id="vEQTfBxCxNn2xn9pjMhN-64" value="" style="endArrow=none;html=1;rounded=0;exitX=0.5;exitY=0;exitDx=0;exitDy=0;entryX=0.5;entryY=1;entryDx=0;entryDy=0;" edge="1" parent="1" source="vEQTfBxCxNn2xn9pjMhN-53" target="vEQTfBxCxNn2xn9pjMhN-7">
          <mxGeometry width="50" height="50" relative="1" as="geometry">
            <mxPoint x="1410" y="470" as="sourcePoint" />
            <mxPoint x="1460" y="420" as="targetPoint" />
          </mxGeometry>
        </mxCell>
        <mxCell id="vEQTfBxCxNn2xn9pjMhN-65" value="" style="endArrow=none;html=1;rounded=0;exitX=0.5;exitY=1;exitDx=0;exitDy=0;entryX=0.5;entryY=0;entryDx=0;entryDy=0;" edge="1" parent="1" source="vEQTfBxCxNn2xn9pjMhN-53" target="vEQTfBxCxNn2xn9pjMhN-61">
          <mxGeometry width="50" height="50" relative="1" as="geometry">
            <mxPoint x="1410" y="470" as="sourcePoint" />
            <mxPoint x="1460" y="420" as="targetPoint" />
          </mxGeometry>
        </mxCell>
        <mxCell id="vEQTfBxCxNn2xn9pjMhN-66" value="" style="endArrow=none;html=1;rounded=0;exitX=0.5;exitY=1;exitDx=0;exitDy=0;entryX=0.5;entryY=0;entryDx=0;entryDy=0;" edge="1" parent="1" source="vEQTfBxCxNn2xn9pjMhN-53" target="vEQTfBxCxNn2xn9pjMhN-62">
          <mxGeometry width="50" height="50" relative="1" as="geometry">
            <mxPoint x="1410" y="470" as="sourcePoint" />
            <mxPoint x="1460" y="420" as="targetPoint" />
          </mxGeometry>
        </mxCell>
        <mxCell id="vEQTfBxCxNn2xn9pjMhN-67" value="" style="endArrow=none;html=1;rounded=0;exitX=0.5;exitY=1;exitDx=0;exitDy=0;entryX=0.5;entryY=0;entryDx=0;entryDy=0;" edge="1" parent="1" source="vEQTfBxCxNn2xn9pjMhN-53" target="vEQTfBxCxNn2xn9pjMhN-63">
          <mxGeometry width="50" height="50" relative="1" as="geometry">
            <mxPoint x="1410" y="470" as="sourcePoint" />
            <mxPoint x="1460" y="420" as="targetPoint" />
          </mxGeometry>
        </mxCell>
        <mxCell id="vEQTfBxCxNn2xn9pjMhN-68" value="favorite-game=2" style="ellipse;whiteSpace=wrap;html=1;aspect=fixed;" vertex="1" parent="1">
          <mxGeometry x="1840" y="360" width="80" height="80" as="geometry" />
        </mxCell>
        <mxCell id="vEQTfBxCxNn2xn9pjMhN-69" value="" style="endArrow=none;html=1;rounded=0;exitX=0.5;exitY=1;exitDx=0;exitDy=0;entryX=0.5;entryY=0;entryDx=0;entryDy=0;" edge="1" parent="1" source="vEQTfBxCxNn2xn9pjMhN-8" target="vEQTfBxCxNn2xn9pjMhN-68">
          <mxGeometry width="50" height="50" relative="1" as="geometry">
            <mxPoint x="1410" y="470" as="sourcePoint" />
            <mxPoint x="1460" y="420" as="targetPoint" />
          </mxGeometry>
        </mxCell>
        <mxCell id="vEQTfBxCxNn2xn9pjMhN-70" value="favorite-game=3" style="ellipse;whiteSpace=wrap;html=1;aspect=fixed;" vertex="1" parent="1">
          <mxGeometry x="1960" y="360" width="80" height="80" as="geometry" />
        </mxCell>
        <mxCell id="vEQTfBxCxNn2xn9pjMhN-71" value="" style="endArrow=none;html=1;rounded=0;entryX=0.5;entryY=1;entryDx=0;entryDy=0;exitX=0.5;exitY=0;exitDx=0;exitDy=0;" edge="1" parent="1" source="vEQTfBxCxNn2xn9pjMhN-70" target="vEQTfBxCxNn2xn9pjMhN-9">
          <mxGeometry width="50" height="50" relative="1" as="geometry">
            <mxPoint x="1410" y="470" as="sourcePoint" />
            <mxPoint x="1460" y="420" as="targetPoint" />
          </mxGeometry>
        </mxCell>
        <mxCell id="vEQTfBxCxNn2xn9pjMhN-72" value="" style="endArrow=none;html=1;rounded=0;entryX=0.5;entryY=1;entryDx=0;entryDy=0;exitX=0.5;exitY=0;exitDx=0;exitDy=0;" edge="1" parent="1" source="vEQTfBxCxNn2xn9pjMhN-54" target="vEQTfBxCxNn2xn9pjMhN-10">
          <mxGeometry width="50" height="50" relative="1" as="geometry">
            <mxPoint x="1410" y="470" as="sourcePoint" />
            <mxPoint x="1460" y="420" as="targetPoint" />
          </mxGeometry>
        </mxCell>
        <mxCell id="vEQTfBxCxNn2xn9pjMhN-73" value="about-microsoft=1" style="ellipse;whiteSpace=wrap;html=1;aspect=fixed;" vertex="1" parent="1">
          <mxGeometry x="2080" y="360" width="80" height="80" as="geometry" />
        </mxCell>
        <mxCell id="vEQTfBxCxNn2xn9pjMhN-74" value="high-tech-companies=2" style="ellipse;whiteSpace=wrap;html=1;aspect=fixed;" vertex="1" parent="1">
          <mxGeometry x="2200" y="360" width="80" height="80" as="geometry" />
        </mxCell>
        <mxCell id="vEQTfBxCxNn2xn9pjMhN-75" value="" style="endArrow=none;html=1;rounded=0;exitX=0.5;exitY=1;exitDx=0;exitDy=0;entryX=0.5;entryY=0;entryDx=0;entryDy=0;" edge="1" parent="1" source="vEQTfBxCxNn2xn9pjMhN-54" target="vEQTfBxCxNn2xn9pjMhN-73">
          <mxGeometry width="50" height="50" relative="1" as="geometry">
            <mxPoint x="1550" y="470" as="sourcePoint" />
            <mxPoint x="1600" y="420" as="targetPoint" />
          </mxGeometry>
        </mxCell>
        <mxCell id="vEQTfBxCxNn2xn9pjMhN-76" value="" style="endArrow=none;html=1;rounded=0;exitX=0.5;exitY=1;exitDx=0;exitDy=0;entryX=0.5;entryY=0;entryDx=0;entryDy=0;" edge="1" parent="1" source="vEQTfBxCxNn2xn9pjMhN-54" target="vEQTfBxCxNn2xn9pjMhN-74">
          <mxGeometry width="50" height="50" relative="1" as="geometry">
            <mxPoint x="1550" y="470" as="sourcePoint" />
            <mxPoint x="1600" y="420" as="targetPoint" />
          </mxGeometry>
        </mxCell>
        <mxCell id="vEQTfBxCxNn2xn9pjMhN-81" value="want-learn-programming=1" style="ellipse;whiteSpace=wrap;html=1;aspect=fixed;" vertex="1" parent="1">
          <mxGeometry x="-450" y="1440" width="80" height="80" as="geometry" />
        </mxCell>
        <mxCell id="vEQTfBxCxNn2xn9pjMhN-82" value="" style="endArrow=none;html=1;rounded=0;entryX=0.5;entryY=1;entryDx=0;entryDy=0;exitX=0.5;exitY=0;exitDx=0;exitDy=0;" edge="1" parent="1" source="vEQTfBxCxNn2xn9pjMhN-81" target="vEQTfBxCxNn2xn9pjMhN-22">
          <mxGeometry width="50" height="50" relative="1" as="geometry">
            <mxPoint x="170" y="620" as="sourcePoint" />
            <mxPoint x="220" y="570" as="targetPoint" />
          </mxGeometry>
        </mxCell>
        <mxCell id="vEQTfBxCxNn2xn9pjMhN-84" value="want-learn-programming=3" style="ellipse;whiteSpace=wrap;html=1;aspect=fixed;" vertex="1" parent="1">
          <mxGeometry x="-90" y="1420" width="80" height="80" as="geometry" />
        </mxCell>
        <mxCell id="vEQTfBxCxNn2xn9pjMhN-85" value="want-learn-programming=4" style="ellipse;whiteSpace=wrap;html=1;aspect=fixed;" vertex="1" parent="1">
          <mxGeometry x="30" y="1420" width="80" height="80" as="geometry" />
        </mxCell>
        <mxCell id="vEQTfBxCxNn2xn9pjMhN-86" value="want-learn-programming=5" style="ellipse;whiteSpace=wrap;html=1;aspect=fixed;" vertex="1" parent="1">
          <mxGeometry x="150" y="1420" width="80" height="80" as="geometry" />
        </mxCell>
        <mxCell id="vEQTfBxCxNn2xn9pjMhN-87" value="great-idea=no" style="ellipse;whiteSpace=wrap;html=1;aspect=fixed;" vertex="1" parent="1">
          <mxGeometry x="150" y="1220" width="80" height="80" as="geometry" />
        </mxCell>
        <mxCell id="vEQTfBxCxNn2xn9pjMhN-88" value="OR" style="ellipse;whiteSpace=wrap;html=1;aspect=fixed;" vertex="1" parent="1">
          <mxGeometry x="170" y="1340" width="40" height="40" as="geometry" />
        </mxCell>
        <mxCell id="vEQTfBxCxNn2xn9pjMhN-89" value="" style="endArrow=none;html=1;rounded=0;exitX=0.5;exitY=1;exitDx=0;exitDy=0;entryX=0.5;entryY=0;entryDx=0;entryDy=0;" edge="1" parent="1" source="vEQTfBxCxNn2xn9pjMhN-87" target="vEQTfBxCxNn2xn9pjMhN-88">
          <mxGeometry width="50" height="50" relative="1" as="geometry">
            <mxPoint x="280" y="1280" as="sourcePoint" />
            <mxPoint x="330" y="1230" as="targetPoint" />
          </mxGeometry>
        </mxCell>
        <mxCell id="vEQTfBxCxNn2xn9pjMhN-90" value="" style="endArrow=none;html=1;rounded=0;exitX=0.5;exitY=1;exitDx=0;exitDy=0;entryX=0.5;entryY=0;entryDx=0;entryDy=0;" edge="1" parent="1" source="vEQTfBxCxNn2xn9pjMhN-88" target="vEQTfBxCxNn2xn9pjMhN-86">
          <mxGeometry width="50" height="50" relative="1" as="geometry">
            <mxPoint x="160" y="1280" as="sourcePoint" />
            <mxPoint x="210" y="1230" as="targetPoint" />
          </mxGeometry>
        </mxCell>
        <mxCell id="vEQTfBxCxNn2xn9pjMhN-91" value="" style="endArrow=none;html=1;rounded=0;exitX=0.5;exitY=0;exitDx=0;exitDy=0;entryX=0.5;entryY=1;entryDx=0;entryDy=0;" edge="1" parent="1" source="vEQTfBxCxNn2xn9pjMhN-85" target="vEQTfBxCxNn2xn9pjMhN-88">
          <mxGeometry width="50" height="50" relative="1" as="geometry">
            <mxPoint x="160" y="1280" as="sourcePoint" />
            <mxPoint x="210" y="1230" as="targetPoint" />
          </mxGeometry>
        </mxCell>
        <mxCell id="vEQTfBxCxNn2xn9pjMhN-92" value="" style="endArrow=none;html=1;rounded=0;exitX=0.5;exitY=0;exitDx=0;exitDy=0;entryX=0.5;entryY=1;entryDx=0;entryDy=0;" edge="1" parent="1" source="vEQTfBxCxNn2xn9pjMhN-84" target="vEQTfBxCxNn2xn9pjMhN-88">
          <mxGeometry width="50" height="50" relative="1" as="geometry">
            <mxPoint x="160" y="1280" as="sourcePoint" />
            <mxPoint x="210" y="1230" as="targetPoint" />
          </mxGeometry>
        </mxCell>
        <mxCell id="vEQTfBxCxNn2xn9pjMhN-93" value="great-idea=yes" style="ellipse;whiteSpace=wrap;html=1;aspect=fixed;" vertex="1" parent="1">
          <mxGeometry x="-90" y="1240" width="80" height="80" as="geometry" />
        </mxCell>
        <mxCell id="vEQTfBxCxNn2xn9pjMhN-94" value="OR" style="ellipse;whiteSpace=wrap;html=1;aspect=fixed;" vertex="1" parent="1">
          <mxGeometry x="-70" y="1340" width="40" height="40" as="geometry" />
        </mxCell>
        <mxCell id="vEQTfBxCxNn2xn9pjMhN-95" value="" style="endArrow=none;html=1;rounded=0;exitX=0.5;exitY=1;exitDx=0;exitDy=0;entryX=0.5;entryY=0;entryDx=0;entryDy=0;" edge="1" parent="1" source="vEQTfBxCxNn2xn9pjMhN-93" target="vEQTfBxCxNn2xn9pjMhN-94">
          <mxGeometry width="50" height="50" relative="1" as="geometry">
            <mxPoint x="40" y="1280" as="sourcePoint" />
            <mxPoint x="90" y="1230" as="targetPoint" />
          </mxGeometry>
        </mxCell>
        <mxCell id="vEQTfBxCxNn2xn9pjMhN-96" value="" style="endArrow=none;html=1;rounded=0;exitX=0.5;exitY=0;exitDx=0;exitDy=0;entryX=0.5;entryY=1;entryDx=0;entryDy=0;" edge="1" parent="1" source="vEQTfBxCxNn2xn9pjMhN-84" target="vEQTfBxCxNn2xn9pjMhN-94">
          <mxGeometry width="50" height="50" relative="1" as="geometry">
            <mxPoint x="160" y="1280" as="sourcePoint" />
            <mxPoint x="210" y="1230" as="targetPoint" />
          </mxGeometry>
        </mxCell>
        <mxCell id="vEQTfBxCxNn2xn9pjMhN-97" value="" style="endArrow=none;html=1;rounded=0;exitX=0.5;exitY=0;exitDx=0;exitDy=0;entryX=0.5;entryY=1;entryDx=0;entryDy=0;" edge="1" parent="1" source="vEQTfBxCxNn2xn9pjMhN-85" target="vEQTfBxCxNn2xn9pjMhN-94">
          <mxGeometry width="50" height="50" relative="1" as="geometry">
            <mxPoint x="160" y="1280" as="sourcePoint" />
            <mxPoint x="210" y="1230" as="targetPoint" />
          </mxGeometry>
        </mxCell>
        <mxCell id="vEQTfBxCxNn2xn9pjMhN-98" value="" style="endArrow=none;html=1;rounded=0;exitX=0.5;exitY=0;exitDx=0;exitDy=0;entryX=0.5;entryY=1;entryDx=0;entryDy=0;" edge="1" parent="1" source="vEQTfBxCxNn2xn9pjMhN-86" target="vEQTfBxCxNn2xn9pjMhN-94">
          <mxGeometry width="50" height="50" relative="1" as="geometry">
            <mxPoint x="160" y="1280" as="sourcePoint" />
            <mxPoint x="210" y="1230" as="targetPoint" />
          </mxGeometry>
        </mxCell>
        <mxCell id="vEQTfBxCxNn2xn9pjMhN-99" value="" style="endArrow=none;html=1;rounded=0;exitX=0.5;exitY=0;exitDx=0;exitDy=0;entryX=0.5;entryY=1;entryDx=0;entryDy=0;" edge="1" parent="1" source="vEQTfBxCxNn2xn9pjMhN-87" target="vEQTfBxCxNn2xn9pjMhN-27">
          <mxGeometry width="50" height="50" relative="1" as="geometry">
            <mxPoint x="170" y="620" as="sourcePoint" />
            <mxPoint x="220" y="570" as="targetPoint" />
          </mxGeometry>
        </mxCell>
        <mxCell id="vEQTfBxCxNn2xn9pjMhN-100" value="" style="endArrow=none;html=1;rounded=0;entryX=0.5;entryY=0;entryDx=0;entryDy=0;exitX=0.5;exitY=1;exitDx=0;exitDy=0;" edge="1" parent="1" source="vEQTfBxCxNn2xn9pjMhN-26" target="vEQTfBxCxNn2xn9pjMhN-87">
          <mxGeometry width="50" height="50" relative="1" as="geometry">
            <mxPoint x="170" y="620" as="sourcePoint" />
            <mxPoint x="220" y="570" as="targetPoint" />
          </mxGeometry>
        </mxCell>
        <mxCell id="vEQTfBxCxNn2xn9pjMhN-102" value="want-to-study=2" style="ellipse;whiteSpace=wrap;html=1;aspect=fixed;" vertex="1" parent="1">
          <mxGeometry x="390" y="1040" width="80" height="80" as="geometry" />
        </mxCell>
        <mxCell id="vEQTfBxCxNn2xn9pjMhN-103" value="" style="endArrow=none;html=1;rounded=0;exitX=0.5;exitY=0;exitDx=0;exitDy=0;entryX=0.5;entryY=1;entryDx=0;entryDy=0;" edge="1" parent="1" source="vEQTfBxCxNn2xn9pjMhN-87" target="vEQTfBxCxNn2xn9pjMhN-102">
          <mxGeometry width="50" height="50" relative="1" as="geometry">
            <mxPoint x="160" y="1080" as="sourcePoint" />
            <mxPoint x="210" y="1030" as="targetPoint" />
          </mxGeometry>
        </mxCell>
        <mxCell id="vEQTfBxCxNn2xn9pjMhN-104" value="" style="endArrow=none;html=1;rounded=0;entryX=0.5;entryY=0;entryDx=0;entryDy=0;exitX=0.5;exitY=1;exitDx=0;exitDy=0;" edge="1" parent="1" source="vEQTfBxCxNn2xn9pjMhN-37" target="vEQTfBxCxNn2xn9pjMhN-102">
          <mxGeometry width="50" height="50" relative="1" as="geometry">
            <mxPoint x="250" y="620" as="sourcePoint" />
            <mxPoint x="300" y="570" as="targetPoint" />
          </mxGeometry>
        </mxCell>
        <mxCell id="vEQTfBxCxNn2xn9pjMhN-105" value="" style="endArrow=none;html=1;rounded=0;exitX=0.5;exitY=1;exitDx=0;exitDy=0;entryX=0.5;entryY=0;entryDx=0;entryDy=0;" edge="1" parent="1" source="vEQTfBxCxNn2xn9pjMhN-15" target="vEQTfBxCxNn2xn9pjMhN-87">
          <mxGeometry width="50" height="50" relative="1" as="geometry">
            <mxPoint x="-70" y="600" as="sourcePoint" />
            <mxPoint x="-20" y="550" as="targetPoint" />
          </mxGeometry>
        </mxCell>
        <mxCell id="vEQTfBxCxNn2xn9pjMhN-110" value="OR" style="ellipse;whiteSpace=wrap;html=1;aspect=fixed;" vertex="1" parent="1">
          <mxGeometry x="660" y="480" width="40" height="40" as="geometry" />
        </mxCell>
        <mxCell id="vEQTfBxCxNn2xn9pjMhN-111" value="" style="endArrow=none;html=1;rounded=0;exitX=0.5;exitY=0;exitDx=0;exitDy=0;entryX=0.5;entryY=1;entryDx=0;entryDy=0;" edge="1" parent="1" source="vEQTfBxCxNn2xn9pjMhN-106" target="vEQTfBxCxNn2xn9pjMhN-110">
          <mxGeometry width="50" height="50" relative="1" as="geometry">
            <mxPoint x="280" y="770" as="sourcePoint" />
            <mxPoint x="330" y="720" as="targetPoint" />
          </mxGeometry>
        </mxCell>
        <mxCell id="vEQTfBxCxNn2xn9pjMhN-112" value="" style="endArrow=none;html=1;rounded=0;entryX=0.5;entryY=0;entryDx=0;entryDy=0;exitX=0.5;exitY=1;exitDx=0;exitDy=0;" edge="1" parent="1" source="vEQTfBxCxNn2xn9pjMhN-38" target="vEQTfBxCxNn2xn9pjMhN-110">
          <mxGeometry width="50" height="50" relative="1" as="geometry">
            <mxPoint x="280" y="770" as="sourcePoint" />
            <mxPoint x="330" y="720" as="targetPoint" />
          </mxGeometry>
        </mxCell>
        <mxCell id="vEQTfBxCxNn2xn9pjMhN-113" value="OR" style="ellipse;whiteSpace=wrap;html=1;aspect=fixed;" vertex="1" parent="1">
          <mxGeometry x="1260.5" y="480" width="40" height="40" as="geometry" />
        </mxCell>
        <mxCell id="vEQTfBxCxNn2xn9pjMhN-114" value="" style="endArrow=none;html=1;rounded=0;entryX=0.5;entryY=1;entryDx=0;entryDy=0;exitX=0.5;exitY=0;exitDx=0;exitDy=0;" edge="1" parent="1" source="vEQTfBxCxNn2xn9pjMhN-113" target="vEQTfBxCxNn2xn9pjMhN-56">
          <mxGeometry width="50" height="50" relative="1" as="geometry">
            <mxPoint x="990" y="770" as="sourcePoint" />
            <mxPoint x="1040" y="720" as="targetPoint" />
          </mxGeometry>
        </mxCell>
        <mxCell id="vEQTfBxCxNn2xn9pjMhN-115" value="" style="endArrow=none;html=1;rounded=0;entryX=0.5;entryY=1;entryDx=0;entryDy=0;exitX=0.5;exitY=0;exitDx=0;exitDy=0;" edge="1" parent="1" source="vEQTfBxCxNn2xn9pjMhN-106" target="vEQTfBxCxNn2xn9pjMhN-113">
          <mxGeometry width="50" height="50" relative="1" as="geometry">
            <mxPoint x="990" y="770" as="sourcePoint" />
            <mxPoint x="1040" y="720" as="targetPoint" />
          </mxGeometry>
        </mxCell>
        <mxCell id="vEQTfBxCxNn2xn9pjMhN-116" value="platform-segment=4" style="ellipse;whiteSpace=wrap;html=1;aspect=fixed;" vertex="1" parent="1">
          <mxGeometry x="-90" y="1040" width="80" height="80" as="geometry" />
        </mxCell>
        <mxCell id="vEQTfBxCxNn2xn9pjMhN-118" value="" style="endArrow=none;html=1;rounded=0;exitX=0.5;exitY=0;exitDx=0;exitDy=0;entryX=0.5;entryY=1;entryDx=0;entryDy=0;" edge="1" parent="1" source="vEQTfBxCxNn2xn9pjMhN-116" target="vEQTfBxCxNn2xn9pjMhN-61">
          <mxGeometry width="50" height="50" relative="1" as="geometry">
            <mxPoint x="90" y="770" as="sourcePoint" />
            <mxPoint x="140" y="720" as="targetPoint" />
          </mxGeometry>
        </mxCell>
        <mxCell id="vEQTfBxCxNn2xn9pjMhN-119" value="OR" style="ellipse;whiteSpace=wrap;html=1;aspect=fixed;" vertex="1" parent="1">
          <mxGeometry x="1620" y="480" width="40" height="40" as="geometry" />
        </mxCell>
        <mxCell id="vEQTfBxCxNn2xn9pjMhN-120" value="app-work-realtime=no" style="ellipse;whiteSpace=wrap;html=1;aspect=fixed;" vertex="1" parent="1">
          <mxGeometry x="1600" y="920" width="80" height="80" as="geometry" />
        </mxCell>
        <mxCell id="vEQTfBxCxNn2xn9pjMhN-121" value="" style="endArrow=none;html=1;rounded=0;exitX=0.5;exitY=0;exitDx=0;exitDy=0;entryX=0.5;entryY=1;entryDx=0;entryDy=0;" edge="1" parent="1" source="vEQTfBxCxNn2xn9pjMhN-120" target="vEQTfBxCxNn2xn9pjMhN-119">
          <mxGeometry width="50" height="50" relative="1" as="geometry">
            <mxPoint x="1570" y="660" as="sourcePoint" />
            <mxPoint x="1620" y="610" as="targetPoint" />
          </mxGeometry>
        </mxCell>
        <mxCell id="vEQTfBxCxNn2xn9pjMhN-122" value="" style="endArrow=none;html=1;rounded=0;entryX=0.5;entryY=1;entryDx=0;entryDy=0;exitX=0.5;exitY=0;exitDx=0;exitDy=0;" edge="1" parent="1" source="vEQTfBxCxNn2xn9pjMhN-119" target="vEQTfBxCxNn2xn9pjMhN-62">
          <mxGeometry width="50" height="50" relative="1" as="geometry">
            <mxPoint x="1570" y="660" as="sourcePoint" />
            <mxPoint x="1620" y="610" as="targetPoint" />
          </mxGeometry>
        </mxCell>
        <mxCell id="vEQTfBxCxNn2xn9pjMhN-123" value="" style="endArrow=none;html=1;rounded=0;entryX=0.5;entryY=1;entryDx=0;entryDy=0;exitX=0.5;exitY=0;exitDx=0;exitDy=0;" edge="1" parent="1" source="vEQTfBxCxNn2xn9pjMhN-116" target="vEQTfBxCxNn2xn9pjMhN-120">
          <mxGeometry width="50" height="50" relative="1" as="geometry">
            <mxPoint x="920" y="1000" as="sourcePoint" />
            <mxPoint x="970" y="950" as="targetPoint" />
          </mxGeometry>
        </mxCell>
        <mxCell id="vEQTfBxCxNn2xn9pjMhN-124" value="new-solution-with-great-potential=2" style="ellipse;whiteSpace=wrap;html=1;aspect=fixed;" vertex="1" parent="1">
          <mxGeometry x="1840" y="560" width="80" height="80" as="geometry" />
        </mxCell>
        <mxCell id="vEQTfBxCxNn2xn9pjMhN-125" value="new-solution-with-great-potential=3" style="ellipse;whiteSpace=wrap;html=1;aspect=fixed;" vertex="1" parent="1">
          <mxGeometry x="1960" y="560" width="80" height="80" as="geometry" />
        </mxCell>
        <mxCell id="vEQTfBxCxNn2xn9pjMhN-126" value="OR" style="ellipse;whiteSpace=wrap;html=1;aspect=fixed;" vertex="1" parent="1">
          <mxGeometry x="1860" y="480" width="40" height="40" as="geometry" />
        </mxCell>
        <mxCell id="vEQTfBxCxNn2xn9pjMhN-127" value="OR" style="ellipse;whiteSpace=wrap;html=1;aspect=fixed;" vertex="1" parent="1">
          <mxGeometry x="1980" y="480" width="40" height="40" as="geometry" />
        </mxCell>
        <mxCell id="vEQTfBxCxNn2xn9pjMhN-128" value="OR" style="ellipse;whiteSpace=wrap;html=1;aspect=fixed;" vertex="1" parent="1">
          <mxGeometry x="180" y="480" width="40" height="40" as="geometry" />
        </mxCell>
        <mxCell id="vEQTfBxCxNn2xn9pjMhN-129" value="" style="endArrow=none;html=1;rounded=0;entryX=0.5;entryY=1;entryDx=0;entryDy=0;exitX=0.5;exitY=0;exitDx=0;exitDy=0;" edge="1" parent="1" source="vEQTfBxCxNn2xn9pjMhN-128" target="vEQTfBxCxNn2xn9pjMhN-31">
          <mxGeometry width="50" height="50" relative="1" as="geometry">
            <mxPoint x="570" y="760" as="sourcePoint" />
            <mxPoint x="620" y="710" as="targetPoint" />
          </mxGeometry>
        </mxCell>
        <mxCell id="vEQTfBxCxNn2xn9pjMhN-130" value="" style="endArrow=none;html=1;rounded=0;entryX=0.5;entryY=1;entryDx=0;entryDy=0;exitX=0.5;exitY=0;exitDx=0;exitDy=0;" edge="1" parent="1" source="vEQTfBxCxNn2xn9pjMhN-124" target="vEQTfBxCxNn2xn9pjMhN-128">
          <mxGeometry width="50" height="50" relative="1" as="geometry">
            <mxPoint x="570" y="760" as="sourcePoint" />
            <mxPoint x="620" y="710" as="targetPoint" />
          </mxGeometry>
        </mxCell>
        <mxCell id="vEQTfBxCxNn2xn9pjMhN-131" value="" style="endArrow=none;html=1;rounded=0;exitX=0.5;exitY=1;exitDx=0;exitDy=0;entryX=0.5;entryY=0;entryDx=0;entryDy=0;" edge="1" parent="1" source="vEQTfBxCxNn2xn9pjMhN-128" target="vEQTfBxCxNn2xn9pjMhN-125">
          <mxGeometry width="50" height="50" relative="1" as="geometry">
            <mxPoint x="1130" y="770" as="sourcePoint" />
            <mxPoint x="1180" y="720" as="targetPoint" />
          </mxGeometry>
        </mxCell>
        <mxCell id="vEQTfBxCxNn2xn9pjMhN-132" value="" style="endArrow=none;html=1;rounded=0;entryX=0.5;entryY=1;entryDx=0;entryDy=0;exitX=0.5;exitY=0;exitDx=0;exitDy=0;" edge="1" parent="1" source="vEQTfBxCxNn2xn9pjMhN-126" target="vEQTfBxCxNn2xn9pjMhN-68">
          <mxGeometry width="50" height="50" relative="1" as="geometry">
            <mxPoint x="1350" y="770" as="sourcePoint" />
            <mxPoint x="1400" y="720" as="targetPoint" />
          </mxGeometry>
        </mxCell>
        <mxCell id="vEQTfBxCxNn2xn9pjMhN-133" value="" style="endArrow=none;html=1;rounded=0;entryX=0.5;entryY=1;entryDx=0;entryDy=0;exitX=0.5;exitY=0;exitDx=0;exitDy=0;" edge="1" parent="1" source="vEQTfBxCxNn2xn9pjMhN-127" target="vEQTfBxCxNn2xn9pjMhN-70">
          <mxGeometry width="50" height="50" relative="1" as="geometry">
            <mxPoint x="1350" y="770" as="sourcePoint" />
            <mxPoint x="1400" y="720" as="targetPoint" />
          </mxGeometry>
        </mxCell>
        <mxCell id="vEQTfBxCxNn2xn9pjMhN-134" value="" style="endArrow=none;html=1;rounded=0;entryX=0.5;entryY=1;entryDx=0;entryDy=0;exitX=0.5;exitY=0;exitDx=0;exitDy=0;" edge="1" parent="1" source="vEQTfBxCxNn2xn9pjMhN-124" target="vEQTfBxCxNn2xn9pjMhN-126">
          <mxGeometry width="50" height="50" relative="1" as="geometry">
            <mxPoint x="1350" y="770" as="sourcePoint" />
            <mxPoint x="1400" y="720" as="targetPoint" />
          </mxGeometry>
        </mxCell>
        <mxCell id="vEQTfBxCxNn2xn9pjMhN-135" value="" style="endArrow=none;html=1;rounded=0;entryX=0.5;entryY=1;entryDx=0;entryDy=0;exitX=0.5;exitY=0;exitDx=0;exitDy=0;" edge="1" parent="1" source="vEQTfBxCxNn2xn9pjMhN-125" target="vEQTfBxCxNn2xn9pjMhN-126">
          <mxGeometry width="50" height="50" relative="1" as="geometry">
            <mxPoint x="1350" y="770" as="sourcePoint" />
            <mxPoint x="1400" y="720" as="targetPoint" />
          </mxGeometry>
        </mxCell>
        <mxCell id="vEQTfBxCxNn2xn9pjMhN-136" value="" style="endArrow=none;html=1;rounded=0;entryX=0.5;entryY=1;entryDx=0;entryDy=0;exitX=0.5;exitY=0;exitDx=0;exitDy=0;" edge="1" parent="1" source="vEQTfBxCxNn2xn9pjMhN-124" target="vEQTfBxCxNn2xn9pjMhN-127">
          <mxGeometry width="50" height="50" relative="1" as="geometry">
            <mxPoint x="1400" y="640" as="sourcePoint" />
            <mxPoint x="1400" y="720" as="targetPoint" />
          </mxGeometry>
        </mxCell>
        <mxCell id="vEQTfBxCxNn2xn9pjMhN-137" value="" style="endArrow=none;html=1;rounded=0;entryX=0.5;entryY=1;entryDx=0;entryDy=0;exitX=0.5;exitY=0;exitDx=0;exitDy=0;" edge="1" parent="1" source="vEQTfBxCxNn2xn9pjMhN-125" target="vEQTfBxCxNn2xn9pjMhN-127">
          <mxGeometry width="50" height="50" relative="1" as="geometry">
            <mxPoint x="1350" y="770" as="sourcePoint" />
            <mxPoint x="1400" y="720" as="targetPoint" />
          </mxGeometry>
        </mxCell>
        <mxCell id="vEQTfBxCxNn2xn9pjMhN-138" value="OR" style="ellipse;whiteSpace=wrap;html=1;aspect=fixed;" vertex="1" parent="1">
          <mxGeometry x="1860" y="680" width="40" height="40" as="geometry" />
        </mxCell>
        <mxCell id="vEQTfBxCxNn2xn9pjMhN-139" value="OR" style="ellipse;whiteSpace=wrap;html=1;aspect=fixed;" vertex="1" parent="1">
          <mxGeometry x="1980" y="680" width="40" height="40" as="geometry" />
        </mxCell>
        <mxCell id="vEQTfBxCxNn2xn9pjMhN-140" value="" style="endArrow=none;html=1;rounded=0;entryX=0.5;entryY=0;entryDx=0;entryDy=0;exitX=0.5;exitY=1;exitDx=0;exitDy=0;" edge="1" parent="1" source="vEQTfBxCxNn2xn9pjMhN-124" target="vEQTfBxCxNn2xn9pjMhN-138">
          <mxGeometry width="50" height="50" relative="1" as="geometry">
            <mxPoint x="1340" y="760" as="sourcePoint" />
            <mxPoint x="1390" y="710" as="targetPoint" />
          </mxGeometry>
        </mxCell>
        <mxCell id="vEQTfBxCxNn2xn9pjMhN-141" value="" style="endArrow=none;html=1;rounded=0;entryX=0.5;entryY=0;entryDx=0;entryDy=0;exitX=0.5;exitY=1;exitDx=0;exitDy=0;" edge="1" parent="1" source="vEQTfBxCxNn2xn9pjMhN-125" target="vEQTfBxCxNn2xn9pjMhN-139">
          <mxGeometry width="50" height="50" relative="1" as="geometry">
            <mxPoint x="1340" y="760" as="sourcePoint" />
            <mxPoint x="1390" y="710" as="targetPoint" />
          </mxGeometry>
        </mxCell>
        <mxCell id="vEQTfBxCxNn2xn9pjMhN-142" value="" style="endArrow=none;html=1;rounded=0;entryX=0.5;entryY=0;entryDx=0;entryDy=0;exitX=0.5;exitY=1;exitDx=0;exitDy=0;" edge="1" parent="1" source="vEQTfBxCxNn2xn9pjMhN-138" target="vEQTfBxCxNn2xn9pjMhN-120">
          <mxGeometry width="50" height="50" relative="1" as="geometry">
            <mxPoint x="1340" y="760" as="sourcePoint" />
            <mxPoint x="1390" y="710" as="targetPoint" />
          </mxGeometry>
        </mxCell>
        <mxCell id="vEQTfBxCxNn2xn9pjMhN-143" value="" style="endArrow=none;html=1;rounded=0;entryX=0.5;entryY=0;entryDx=0;entryDy=0;exitX=0.5;exitY=1;exitDx=0;exitDy=0;" edge="1" parent="1" source="vEQTfBxCxNn2xn9pjMhN-139" target="vEQTfBxCxNn2xn9pjMhN-120">
          <mxGeometry width="50" height="50" relative="1" as="geometry">
            <mxPoint x="1340" y="760" as="sourcePoint" />
            <mxPoint x="1390" y="710" as="targetPoint" />
          </mxGeometry>
        </mxCell>
        <mxCell id="vEQTfBxCxNn2xn9pjMhN-144" value="platform-segment=3" style="ellipse;whiteSpace=wrap;html=1;aspect=fixed;" vertex="1" parent="1">
          <mxGeometry x="30" y="1040" width="80" height="80" as="geometry" />
        </mxCell>
        <mxCell id="vEQTfBxCxNn2xn9pjMhN-146" value="" style="endArrow=none;html=1;rounded=0;exitX=0.5;exitY=0;exitDx=0;exitDy=0;entryX=0.5;entryY=1;entryDx=0;entryDy=0;" edge="1" parent="1" source="vEQTfBxCxNn2xn9pjMhN-144" target="vEQTfBxCxNn2xn9pjMhN-147">
          <mxGeometry width="50" height="50" relative="1" as="geometry">
            <mxPoint x="750" y="750" as="sourcePoint" />
            <mxPoint x="800" y="700" as="targetPoint" />
          </mxGeometry>
        </mxCell>
        <mxCell id="vEQTfBxCxNn2xn9pjMhN-147" value="OR" style="ellipse;whiteSpace=wrap;html=1;aspect=fixed;" vertex="1" parent="1">
          <mxGeometry x="780" y="480" width="40" height="40" as="geometry" />
        </mxCell>
        <mxCell id="vEQTfBxCxNn2xn9pjMhN-148" value="OR" style="ellipse;whiteSpace=wrap;html=1;aspect=fixed;" vertex="1" parent="1">
          <mxGeometry x="900" y="480" width="40" height="40" as="geometry" />
        </mxCell>
        <mxCell id="vEQTfBxCxNn2xn9pjMhN-149" value="OR" style="ellipse;whiteSpace=wrap;html=1;aspect=fixed;" vertex="1" parent="1">
          <mxGeometry x="2100" y="480" width="40" height="40" as="geometry" />
        </mxCell>
        <mxCell id="vEQTfBxCxNn2xn9pjMhN-150" value="" style="endArrow=none;html=1;rounded=0;entryX=0.5;entryY=1;entryDx=0;entryDy=0;exitX=0.5;exitY=0;exitDx=0;exitDy=0;" edge="1" parent="1" source="vEQTfBxCxNn2xn9pjMhN-147" target="vEQTfBxCxNn2xn9pjMhN-39">
          <mxGeometry width="50" height="50" relative="1" as="geometry">
            <mxPoint x="840" y="750" as="sourcePoint" />
            <mxPoint x="890" y="700" as="targetPoint" />
          </mxGeometry>
        </mxCell>
        <mxCell id="vEQTfBxCxNn2xn9pjMhN-151" value="" style="endArrow=none;html=1;rounded=0;entryX=0.5;entryY=1;entryDx=0;entryDy=0;exitX=0.5;exitY=0;exitDx=0;exitDy=0;" edge="1" parent="1" source="vEQTfBxCxNn2xn9pjMhN-148" target="vEQTfBxCxNn2xn9pjMhN-42">
          <mxGeometry width="50" height="50" relative="1" as="geometry">
            <mxPoint x="840" y="750" as="sourcePoint" />
            <mxPoint x="890" y="700" as="targetPoint" />
          </mxGeometry>
        </mxCell>
        <mxCell id="vEQTfBxCxNn2xn9pjMhN-152" value="" style="endArrow=none;html=1;rounded=0;entryX=0.5;entryY=1;entryDx=0;entryDy=0;exitX=0.5;exitY=0;exitDx=0;exitDy=0;" edge="1" parent="1" source="vEQTfBxCxNn2xn9pjMhN-149" target="vEQTfBxCxNn2xn9pjMhN-73">
          <mxGeometry width="50" height="50" relative="1" as="geometry">
            <mxPoint x="1840" y="750" as="sourcePoint" />
            <mxPoint x="1890" y="700" as="targetPoint" />
          </mxGeometry>
        </mxCell>
        <mxCell id="vEQTfBxCxNn2xn9pjMhN-153" value="" style="endArrow=none;html=1;rounded=0;exitX=0.5;exitY=0;exitDx=0;exitDy=0;entryX=0.5;entryY=1;entryDx=0;entryDy=0;" edge="1" parent="1" source="vEQTfBxCxNn2xn9pjMhN-144" target="vEQTfBxCxNn2xn9pjMhN-148">
          <mxGeometry width="50" height="50" relative="1" as="geometry">
            <mxPoint x="870" y="760" as="sourcePoint" />
            <mxPoint x="920" y="710" as="targetPoint" />
          </mxGeometry>
        </mxCell>
        <mxCell id="vEQTfBxCxNn2xn9pjMhN-154" value="" style="endArrow=none;html=1;rounded=0;exitX=0.5;exitY=0;exitDx=0;exitDy=0;entryX=0.5;entryY=1;entryDx=0;entryDy=0;" edge="1" parent="1" source="vEQTfBxCxNn2xn9pjMhN-144" target="vEQTfBxCxNn2xn9pjMhN-149">
          <mxGeometry width="50" height="50" relative="1" as="geometry">
            <mxPoint x="870" y="760" as="sourcePoint" />
            <mxPoint x="920" y="710" as="targetPoint" />
          </mxGeometry>
        </mxCell>
        <mxCell id="vEQTfBxCxNn2xn9pjMhN-155" value="" style="endArrow=none;html=1;rounded=0;exitX=0.5;exitY=0;exitDx=0;exitDy=0;entryX=0.5;entryY=1;entryDx=0;entryDy=0;" edge="1" parent="1" source="vEQTfBxCxNn2xn9pjMhN-102" target="vEQTfBxCxNn2xn9pjMhN-50">
          <mxGeometry width="50" height="50" relative="1" as="geometry">
            <mxPoint x="870" y="750" as="sourcePoint" />
            <mxPoint x="920" y="700" as="targetPoint" />
          </mxGeometry>
        </mxCell>
        <mxCell id="vEQTfBxCxNn2xn9pjMhN-156" value="want-learn-programming=2" style="ellipse;whiteSpace=wrap;html=1;aspect=fixed;" vertex="1" parent="1">
          <mxGeometry x="-210" y="1420" width="80" height="80" as="geometry" />
        </mxCell>
        <mxCell id="vEQTfBxCxNn2xn9pjMhN-157" value="make-money=1" style="ellipse;whiteSpace=wrap;html=1;aspect=fixed;" vertex="1" parent="1">
          <mxGeometry x="-330" y="1240" width="80" height="80" as="geometry" />
        </mxCell>
        <mxCell id="vEQTfBxCxNn2xn9pjMhN-158" value="" style="endArrow=none;html=1;rounded=0;exitX=0.5;exitY=0;exitDx=0;exitDy=0;entryX=0.5;entryY=1;entryDx=0;entryDy=0;" edge="1" parent="1" source="vEQTfBxCxNn2xn9pjMhN-156" target="vEQTfBxCxNn2xn9pjMhN-157">
          <mxGeometry width="50" height="50" relative="1" as="geometry">
            <mxPoint x="300" y="1090" as="sourcePoint" />
            <mxPoint x="350" y="1040" as="targetPoint" />
          </mxGeometry>
        </mxCell>
        <mxCell id="vEQTfBxCxNn2xn9pjMhN-160" value="make-money=2" style="ellipse;whiteSpace=wrap;html=1;aspect=fixed;" vertex="1" parent="1">
          <mxGeometry x="-210" y="1240" width="80" height="80" as="geometry" />
        </mxCell>
        <mxCell id="vEQTfBxCxNn2xn9pjMhN-161" value="" style="endArrow=none;html=1;rounded=0;exitX=0.5;exitY=0;exitDx=0;exitDy=0;entryX=0.5;entryY=1;entryDx=0;entryDy=0;" edge="1" parent="1" source="vEQTfBxCxNn2xn9pjMhN-156" target="vEQTfBxCxNn2xn9pjMhN-160">
          <mxGeometry width="50" height="50" relative="1" as="geometry">
            <mxPoint x="300" y="1090" as="sourcePoint" />
            <mxPoint x="350" y="1040" as="targetPoint" />
          </mxGeometry>
        </mxCell>
        <mxCell id="vEQTfBxCxNn2xn9pjMhN-106" value="platform-segment=2" style="ellipse;whiteSpace=wrap;html=1;aspect=fixed;" vertex="1" parent="1">
          <mxGeometry x="-210" y="1040" width="80" height="80" as="geometry" />
        </mxCell>
        <mxCell id="vEQTfBxCxNn2xn9pjMhN-163" value="OR" style="ellipse;whiteSpace=wrap;html=1;aspect=fixed;" vertex="1" parent="1">
          <mxGeometry x="-190" y="1160" width="40" height="40" as="geometry" />
        </mxCell>
        <mxCell id="vEQTfBxCxNn2xn9pjMhN-164" value="OR" style="ellipse;whiteSpace=wrap;html=1;aspect=fixed;" vertex="1" parent="1">
          <mxGeometry x="-70" y="1160" width="40" height="40" as="geometry" />
        </mxCell>
        <mxCell id="vEQTfBxCxNn2xn9pjMhN-165" value="OR" style="ellipse;whiteSpace=wrap;html=1;aspect=fixed;" vertex="1" parent="1">
          <mxGeometry x="50" y="1160" width="40" height="40" as="geometry" />
        </mxCell>
        <mxCell id="vEQTfBxCxNn2xn9pjMhN-166" value="OR" style="ellipse;whiteSpace=wrap;html=1;aspect=fixed;" vertex="1" parent="1">
          <mxGeometry x="-540" y="480" width="40" height="40" as="geometry" />
        </mxCell>
        <mxCell id="vEQTfBxCxNn2xn9pjMhN-167" value="" style="endArrow=none;html=1;rounded=0;exitX=0.5;exitY=0;exitDx=0;exitDy=0;entryX=0.5;entryY=1;entryDx=0;entryDy=0;" edge="1" parent="1" source="vEQTfBxCxNn2xn9pjMhN-166" target="vEQTfBxCxNn2xn9pjMhN-16">
          <mxGeometry width="50" height="50" relative="1" as="geometry">
            <mxPoint x="310" y="930" as="sourcePoint" />
            <mxPoint x="360" y="880" as="targetPoint" />
          </mxGeometry>
        </mxCell>
        <mxCell id="vEQTfBxCxNn2xn9pjMhN-168" value="" style="endArrow=none;html=1;rounded=0;exitX=0.5;exitY=0;exitDx=0;exitDy=0;entryX=0.5;entryY=1;entryDx=0;entryDy=0;" edge="1" parent="1" source="vEQTfBxCxNn2xn9pjMhN-163" target="vEQTfBxCxNn2xn9pjMhN-106">
          <mxGeometry width="50" height="50" relative="1" as="geometry">
            <mxPoint x="300" y="1090" as="sourcePoint" />
            <mxPoint x="350" y="1040" as="targetPoint" />
          </mxGeometry>
        </mxCell>
        <mxCell id="vEQTfBxCxNn2xn9pjMhN-169" value="" style="endArrow=none;html=1;rounded=0;exitX=0.5;exitY=0;exitDx=0;exitDy=0;entryX=0.5;entryY=1;entryDx=0;entryDy=0;" edge="1" parent="1" source="vEQTfBxCxNn2xn9pjMhN-164" target="vEQTfBxCxNn2xn9pjMhN-116">
          <mxGeometry width="50" height="50" relative="1" as="geometry">
            <mxPoint x="300" y="1090" as="sourcePoint" />
            <mxPoint x="350" y="1040" as="targetPoint" />
          </mxGeometry>
        </mxCell>
        <mxCell id="vEQTfBxCxNn2xn9pjMhN-170" value="" style="endArrow=none;html=1;rounded=0;exitX=0.5;exitY=0;exitDx=0;exitDy=0;entryX=0.5;entryY=1;entryDx=0;entryDy=0;" edge="1" parent="1" source="vEQTfBxCxNn2xn9pjMhN-165" target="vEQTfBxCxNn2xn9pjMhN-144">
          <mxGeometry width="50" height="50" relative="1" as="geometry">
            <mxPoint x="300" y="1090" as="sourcePoint" />
            <mxPoint x="350" y="1040" as="targetPoint" />
          </mxGeometry>
        </mxCell>
        <mxCell id="vEQTfBxCxNn2xn9pjMhN-171" value="" style="endArrow=none;html=1;rounded=0;exitX=0.5;exitY=0;exitDx=0;exitDy=0;entryX=0.5;entryY=1;entryDx=0;entryDy=0;" edge="1" parent="1" source="vEQTfBxCxNn2xn9pjMhN-93" target="vEQTfBxCxNn2xn9pjMhN-165">
          <mxGeometry width="50" height="50" relative="1" as="geometry">
            <mxPoint x="300" y="1090" as="sourcePoint" />
            <mxPoint x="350" y="1040" as="targetPoint" />
          </mxGeometry>
        </mxCell>
        <mxCell id="vEQTfBxCxNn2xn9pjMhN-172" value="" style="endArrow=none;html=1;rounded=0;exitX=0.5;exitY=0;exitDx=0;exitDy=0;entryX=0.5;entryY=1;entryDx=0;entryDy=0;" edge="1" parent="1" source="vEQTfBxCxNn2xn9pjMhN-93" target="vEQTfBxCxNn2xn9pjMhN-164">
          <mxGeometry width="50" height="50" relative="1" as="geometry">
            <mxPoint x="80" y="1260" as="sourcePoint" />
            <mxPoint x="350" y="1040" as="targetPoint" />
          </mxGeometry>
        </mxCell>
        <mxCell id="vEQTfBxCxNn2xn9pjMhN-173" value="" style="endArrow=none;html=1;rounded=0;exitX=0.5;exitY=0;exitDx=0;exitDy=0;entryX=0.5;entryY=1;entryDx=0;entryDy=0;" edge="1" parent="1" source="vEQTfBxCxNn2xn9pjMhN-160" target="vEQTfBxCxNn2xn9pjMhN-163">
          <mxGeometry width="50" height="50" relative="1" as="geometry">
            <mxPoint x="300" y="1090" as="sourcePoint" />
            <mxPoint x="350" y="1040" as="targetPoint" />
          </mxGeometry>
        </mxCell>
        <mxCell id="vEQTfBxCxNn2xn9pjMhN-174" value="" style="endArrow=none;html=1;rounded=0;exitX=0.5;exitY=0;exitDx=0;exitDy=0;entryX=0.5;entryY=1;entryDx=0;entryDy=0;" edge="1" parent="1" source="vEQTfBxCxNn2xn9pjMhN-93" target="vEQTfBxCxNn2xn9pjMhN-163">
          <mxGeometry width="50" height="50" relative="1" as="geometry">
            <mxPoint x="300" y="1090" as="sourcePoint" />
            <mxPoint x="350" y="1040" as="targetPoint" />
          </mxGeometry>
        </mxCell>
        <mxCell id="vEQTfBxCxNn2xn9pjMhN-175" value="" style="endArrow=none;html=1;rounded=0;exitX=0.5;exitY=0;exitDx=0;exitDy=0;entryX=0.5;entryY=1;entryDx=0;entryDy=0;" edge="1" parent="1" source="vEQTfBxCxNn2xn9pjMhN-93" target="vEQTfBxCxNn2xn9pjMhN-166">
          <mxGeometry width="50" height="50" relative="1" as="geometry">
            <mxPoint x="80" y="1120" as="sourcePoint" />
            <mxPoint x="360" y="880" as="targetPoint" />
          </mxGeometry>
        </mxCell>
        <mxCell id="vEQTfBxCxNn2xn9pjMhN-176" value="" style="endArrow=none;html=1;rounded=0;exitX=0.5;exitY=0;exitDx=0;exitDy=0;entryX=0.5;entryY=1;entryDx=0;entryDy=0;" edge="1" parent="1" source="vEQTfBxCxNn2xn9pjMhN-160" target="vEQTfBxCxNn2xn9pjMhN-165">
          <mxGeometry width="50" height="50" relative="1" as="geometry">
            <mxPoint x="300" y="1090" as="sourcePoint" />
            <mxPoint x="350" y="1040" as="targetPoint" />
          </mxGeometry>
        </mxCell>
        <mxCell id="vEQTfBxCxNn2xn9pjMhN-177" value="" style="endArrow=none;html=1;rounded=0;exitX=0.5;exitY=0;exitDx=0;exitDy=0;entryX=0.5;entryY=1;entryDx=0;entryDy=0;" edge="1" parent="1" source="vEQTfBxCxNn2xn9pjMhN-160" target="vEQTfBxCxNn2xn9pjMhN-164">
          <mxGeometry width="50" height="50" relative="1" as="geometry">
            <mxPoint x="300" y="1090" as="sourcePoint" />
            <mxPoint x="50" y="1260" as="targetPoint" />
          </mxGeometry>
        </mxCell>
        <mxCell id="vEQTfBxCxNn2xn9pjMhN-178" value="" style="endArrow=none;html=1;rounded=0;exitX=0.5;exitY=0;exitDx=0;exitDy=0;entryX=0.5;entryY=1;entryDx=0;entryDy=0;" edge="1" parent="1" source="vEQTfBxCxNn2xn9pjMhN-160" target="vEQTfBxCxNn2xn9pjMhN-166">
          <mxGeometry width="50" height="50" relative="1" as="geometry">
            <mxPoint x="200" y="970" as="sourcePoint" />
            <mxPoint x="250" y="920" as="targetPoint" />
          </mxGeometry>
        </mxCell>
        <mxCell id="vEQTfBxCxNn2xn9pjMhN-179" value="" style="endArrow=none;html=1;rounded=0;exitX=0.5;exitY=0;exitDx=0;exitDy=0;entryX=0.5;entryY=1;entryDx=0;entryDy=0;" edge="1" parent="1" source="vEQTfBxCxNn2xn9pjMhN-157" target="vEQTfBxCxNn2xn9pjMhN-17">
          <mxGeometry width="50" height="50" relative="1" as="geometry">
            <mxPoint x="340" y="1010" as="sourcePoint" />
            <mxPoint x="390" y="960" as="targetPoint" />
          </mxGeometry>
        </mxCell>
        <mxCell id="vEQTfBxCxNn2xn9pjMhN-180" value="" style="endArrow=none;html=1;rounded=0;exitX=0.5;exitY=0;exitDx=0;exitDy=0;entryX=0.5;entryY=1;entryDx=0;entryDy=0;" edge="1" parent="1" source="vEQTfBxCxNn2xn9pjMhN-157" target="vEQTfBxCxNn2xn9pjMhN-43">
          <mxGeometry width="50" height="50" relative="1" as="geometry">
            <mxPoint x="270" y="1020" as="sourcePoint" />
            <mxPoint x="320" y="970" as="targetPoint" />
          </mxGeometry>
        </mxCell>
        <mxCell id="vEQTfBxCxNn2xn9pjMhN-181" value="work-platform-segment=2" style="ellipse;whiteSpace=wrap;html=1;aspect=fixed;" vertex="1" parent="1">
          <mxGeometry x="510" y="1040" width="80" height="80" as="geometry" />
        </mxCell>
        <mxCell id="vEQTfBxCxNn2xn9pjMhN-182" value="work-platform-segment=3" style="ellipse;whiteSpace=wrap;html=1;aspect=fixed;" vertex="1" parent="1">
          <mxGeometry x="630" y="1040" width="80" height="80" as="geometry" />
        </mxCell>
        <mxCell id="vEQTfBxCxNn2xn9pjMhN-183" value="work-platform-segment=4" style="ellipse;whiteSpace=wrap;html=1;aspect=fixed;" vertex="1" parent="1">
          <mxGeometry x="750" y="1040" width="80" height="80" as="geometry" />
        </mxCell>
        <mxCell id="vEQTfBxCxNn2xn9pjMhN-184" value="work-platform-segment=5" style="ellipse;whiteSpace=wrap;html=1;aspect=fixed;" vertex="1" parent="1">
          <mxGeometry x="870" y="1040" width="80" height="80" as="geometry" />
        </mxCell>
        <mxCell id="vEQTfBxCxNn2xn9pjMhN-185" value="" style="endArrow=none;html=1;rounded=0;exitX=0.5;exitY=0;exitDx=0;exitDy=0;entryX=0.5;entryY=1;entryDx=0;entryDy=0;" edge="1" parent="1" source="vEQTfBxCxNn2xn9pjMhN-157" target="vEQTfBxCxNn2xn9pjMhN-181">
          <mxGeometry width="50" height="50" relative="1" as="geometry">
            <mxPoint x="-290" y="1150" as="sourcePoint" />
            <mxPoint x="550" y="1180" as="targetPoint" />
          </mxGeometry>
        </mxCell>
        <mxCell id="vEQTfBxCxNn2xn9pjMhN-186" value="" style="endArrow=none;html=1;rounded=0;exitX=0.5;exitY=0;exitDx=0;exitDy=0;entryX=0.5;entryY=1;entryDx=0;entryDy=0;" edge="1" parent="1" source="vEQTfBxCxNn2xn9pjMhN-157" target="vEQTfBxCxNn2xn9pjMhN-182">
          <mxGeometry width="50" height="50" relative="1" as="geometry">
            <mxPoint x="500" y="1170" as="sourcePoint" />
            <mxPoint x="580" y="1220" as="targetPoint" />
          </mxGeometry>
        </mxCell>
        <mxCell id="vEQTfBxCxNn2xn9pjMhN-187" value="" style="endArrow=none;html=1;rounded=0;entryX=0.5;entryY=1;entryDx=0;entryDy=0;exitX=0.5;exitY=0;exitDx=0;exitDy=0;" edge="1" parent="1" source="vEQTfBxCxNn2xn9pjMhN-157" target="vEQTfBxCxNn2xn9pjMhN-183">
          <mxGeometry width="50" height="50" relative="1" as="geometry">
            <mxPoint x="500" y="1170" as="sourcePoint" />
            <mxPoint x="550" y="1120" as="targetPoint" />
          </mxGeometry>
        </mxCell>
        <mxCell id="vEQTfBxCxNn2xn9pjMhN-188" value="" style="endArrow=none;html=1;rounded=0;entryX=0.5;entryY=1;entryDx=0;entryDy=0;exitX=0.5;exitY=0;exitDx=0;exitDy=0;" edge="1" parent="1" source="vEQTfBxCxNn2xn9pjMhN-157" target="vEQTfBxCxNn2xn9pjMhN-184">
          <mxGeometry width="50" height="50" relative="1" as="geometry">
            <mxPoint x="500" y="1170" as="sourcePoint" />
            <mxPoint x="550" y="1120" as="targetPoint" />
          </mxGeometry>
        </mxCell>
        <mxCell id="vEQTfBxCxNn2xn9pjMhN-189" value="" style="endArrow=none;html=1;rounded=0;entryX=0.5;entryY=0;entryDx=0;entryDy=0;exitX=0.5;exitY=1;exitDx=0;exitDy=0;" edge="1" parent="1" source="vEQTfBxCxNn2xn9pjMhN-32" target="vEQTfBxCxNn2xn9pjMhN-181">
          <mxGeometry width="50" height="50" relative="1" as="geometry">
            <mxPoint x="360" y="780" as="sourcePoint" />
            <mxPoint x="410" y="730" as="targetPoint" />
          </mxGeometry>
        </mxCell>
        <mxCell id="vEQTfBxCxNn2xn9pjMhN-190" value="" style="endArrow=none;html=1;rounded=0;entryX=0.5;entryY=1;entryDx=0;entryDy=0;exitX=0.5;exitY=0;exitDx=0;exitDy=0;" edge="1" parent="1" source="vEQTfBxCxNn2xn9pjMhN-181" target="vEQTfBxCxNn2xn9pjMhN-40">
          <mxGeometry width="50" height="50" relative="1" as="geometry">
            <mxPoint x="360" y="780" as="sourcePoint" />
            <mxPoint x="410" y="730" as="targetPoint" />
          </mxGeometry>
        </mxCell>
        <mxCell id="vEQTfBxCxNn2xn9pjMhN-191" value="" style="endArrow=none;html=1;rounded=0;exitX=0.5;exitY=0;exitDx=0;exitDy=0;entryX=0.5;entryY=1;entryDx=0;entryDy=0;" edge="1" parent="1" source="vEQTfBxCxNn2xn9pjMhN-181" target="vEQTfBxCxNn2xn9pjMhN-57">
          <mxGeometry width="50" height="50" relative="1" as="geometry">
            <mxPoint x="920" y="780" as="sourcePoint" />
            <mxPoint x="970" y="730" as="targetPoint" />
          </mxGeometry>
        </mxCell>
        <mxCell id="vEQTfBxCxNn2xn9pjMhN-192" value="" style="endArrow=none;html=1;rounded=0;exitX=0.5;exitY=0;exitDx=0;exitDy=0;entryX=0.5;entryY=1;entryDx=0;entryDy=0;" edge="1" parent="1" source="vEQTfBxCxNn2xn9pjMhN-181" target="vEQTfBxCxNn2xn9pjMhN-74">
          <mxGeometry width="50" height="50" relative="1" as="geometry">
            <mxPoint x="1100" y="780" as="sourcePoint" />
            <mxPoint x="1150" y="730" as="targetPoint" />
          </mxGeometry>
        </mxCell>
        <mxCell id="vEQTfBxCxNn2xn9pjMhN-193" value="" style="endArrow=none;html=1;rounded=0;exitX=0.5;exitY=0;exitDx=0;exitDy=0;entryX=0.5;entryY=1;entryDx=0;entryDy=0;" edge="1" parent="1" source="vEQTfBxCxNn2xn9pjMhN-182" target="vEQTfBxCxNn2xn9pjMhN-63">
          <mxGeometry width="50" height="50" relative="1" as="geometry">
            <mxPoint x="970" y="770" as="sourcePoint" />
            <mxPoint x="1020" y="720" as="targetPoint" />
          </mxGeometry>
        </mxCell>
        <mxCell id="vEQTfBxCxNn2xn9pjMhN-194" value="work-web=1" style="ellipse;whiteSpace=wrap;html=1;aspect=fixed;" vertex="1" parent="1">
          <mxGeometry x="1360" y="920" width="80" height="80" as="geometry" />
        </mxCell>
        <mxCell id="vEQTfBxCxNn2xn9pjMhN-195" value="" style="endArrow=none;html=1;rounded=0;exitX=0.5;exitY=0;exitDx=0;exitDy=0;entryX=0.5;entryY=1;entryDx=0;entryDy=0;" edge="1" parent="1" source="vEQTfBxCxNn2xn9pjMhN-182" target="vEQTfBxCxNn2xn9pjMhN-194">
          <mxGeometry width="50" height="50" relative="1" as="geometry">
            <mxPoint x="960" y="930" as="sourcePoint" />
            <mxPoint x="1010" y="880" as="targetPoint" />
          </mxGeometry>
        </mxCell>
        <mxCell id="vEQTfBxCxNn2xn9pjMhN-201" value="" style="endArrow=none;html=1;rounded=0;exitX=0.5;exitY=0;exitDx=0;exitDy=0;entryX=0.5;entryY=1;entryDx=0;entryDy=0;" edge="1" parent="1" source="vEQTfBxCxNn2xn9pjMhN-184" target="vEQTfBxCxNn2xn9pjMhN-110">
          <mxGeometry width="50" height="50" relative="1" as="geometry">
            <mxPoint x="1140" y="790" as="sourcePoint" />
            <mxPoint x="1190" y="740" as="targetPoint" />
          </mxGeometry>
        </mxCell>
        <mxCell id="vEQTfBxCxNn2xn9pjMhN-202" value="" style="endArrow=none;html=1;rounded=0;exitX=0.5;exitY=0;exitDx=0;exitDy=0;entryX=0.5;entryY=1;entryDx=0;entryDy=0;" edge="1" parent="1" source="vEQTfBxCxNn2xn9pjMhN-184" target="vEQTfBxCxNn2xn9pjMhN-113">
          <mxGeometry width="50" height="50" relative="1" as="geometry">
            <mxPoint x="1140" y="790" as="sourcePoint" />
            <mxPoint x="1190" y="740" as="targetPoint" />
          </mxGeometry>
        </mxCell>
        <mxCell id="vEQTfBxCxNn2xn9pjMhN-203" value="" style="endArrow=none;html=1;rounded=0;exitX=0.5;exitY=0;exitDx=0;exitDy=0;entryX=0.5;entryY=1;entryDx=0;entryDy=0;" edge="1" parent="1" source="vEQTfBxCxNn2xn9pjMhN-183" target="vEQTfBxCxNn2xn9pjMhN-147">
          <mxGeometry width="50" height="50" relative="1" as="geometry">
            <mxPoint x="1140" y="790" as="sourcePoint" />
            <mxPoint x="1190" y="740" as="targetPoint" />
          </mxGeometry>
        </mxCell>
        <mxCell id="vEQTfBxCxNn2xn9pjMhN-204" value="" style="endArrow=none;html=1;rounded=0;exitX=0.5;exitY=0;exitDx=0;exitDy=0;entryX=0.5;entryY=1;entryDx=0;entryDy=0;" edge="1" parent="1" source="vEQTfBxCxNn2xn9pjMhN-183" target="vEQTfBxCxNn2xn9pjMhN-148">
          <mxGeometry width="50" height="50" relative="1" as="geometry">
            <mxPoint x="1140" y="790" as="sourcePoint" />
            <mxPoint x="1190" y="740" as="targetPoint" />
          </mxGeometry>
        </mxCell>
        <mxCell id="vEQTfBxCxNn2xn9pjMhN-205" value="" style="endArrow=none;html=1;rounded=0;exitX=0.5;exitY=0;exitDx=0;exitDy=0;entryX=0.5;entryY=1;entryDx=0;entryDy=0;startArrow=none;" edge="1" parent="1" source="vEQTfBxCxNn2xn9pjMhN-206" target="vEQTfBxCxNn2xn9pjMhN-149">
          <mxGeometry width="50" height="50" relative="1" as="geometry">
            <mxPoint x="880" y="790" as="sourcePoint" />
            <mxPoint x="930" y="740" as="targetPoint" />
          </mxGeometry>
        </mxCell>
        <mxCell id="vEQTfBxCxNn2xn9pjMhN-207" value="want-to-work=2&lt;br&gt;" style="ellipse;whiteSpace=wrap;html=1;aspect=fixed;" vertex="1" parent="1">
          <mxGeometry x="1880" y="760" width="80" height="80" as="geometry" />
        </mxCell>
        <mxCell id="vEQTfBxCxNn2xn9pjMhN-208" value="" style="endArrow=none;html=1;rounded=0;exitX=0.5;exitY=0;exitDx=0;exitDy=0;entryX=0.5;entryY=1;entryDx=0;entryDy=0;" edge="1" parent="1" source="vEQTfBxCxNn2xn9pjMhN-194" target="vEQTfBxCxNn2xn9pjMhN-206">
          <mxGeometry width="50" height="50" relative="1" as="geometry">
            <mxPoint x="1230" y="950" as="sourcePoint" />
            <mxPoint x="1280" y="900" as="targetPoint" />
          </mxGeometry>
        </mxCell>
        <mxCell id="vEQTfBxCxNn2xn9pjMhN-209" value="" style="endArrow=none;html=1;rounded=0;exitX=0.5;exitY=0;exitDx=0;exitDy=0;entryX=0.5;entryY=1;entryDx=0;entryDy=0;" edge="1" parent="1" source="vEQTfBxCxNn2xn9pjMhN-194" target="vEQTfBxCxNn2xn9pjMhN-207">
          <mxGeometry width="50" height="50" relative="1" as="geometry">
            <mxPoint x="1230" y="950" as="sourcePoint" />
            <mxPoint x="1280" y="900" as="targetPoint" />
          </mxGeometry>
        </mxCell>
        <mxCell id="vEQTfBxCxNn2xn9pjMhN-210" value="" style="endArrow=none;html=1;rounded=0;exitX=0.5;exitY=0;exitDx=0;exitDy=0;entryX=0.5;entryY=1;entryDx=0;entryDy=0;" edge="1" parent="1" source="vEQTfBxCxNn2xn9pjMhN-207" target="vEQTfBxCxNn2xn9pjMhN-138">
          <mxGeometry width="50" height="50" relative="1" as="geometry">
            <mxPoint x="1430" y="860" as="sourcePoint" />
            <mxPoint x="1480" y="810" as="targetPoint" />
          </mxGeometry>
        </mxCell>
        <mxCell id="vEQTfBxCxNn2xn9pjMhN-211" value="" style="endArrow=none;html=1;rounded=0;exitX=0.5;exitY=0;exitDx=0;exitDy=0;entryX=0.5;entryY=1;entryDx=0;entryDy=0;" edge="1" parent="1" source="vEQTfBxCxNn2xn9pjMhN-207" target="vEQTfBxCxNn2xn9pjMhN-139">
          <mxGeometry width="50" height="50" relative="1" as="geometry">
            <mxPoint x="1400" y="890" as="sourcePoint" />
            <mxPoint x="1450" y="840" as="targetPoint" />
          </mxGeometry>
        </mxCell>
        <mxCell id="vEQTfBxCxNn2xn9pjMhN-212" value="" style="endArrow=none;html=1;rounded=0;entryX=0.5;entryY=0;entryDx=0;entryDy=0;exitX=0.5;exitY=1;exitDx=0;exitDy=0;" edge="1" parent="1" source="vEQTfBxCxNn2xn9pjMhN-149" target="vEQTfBxCxNn2xn9pjMhN-206">
          <mxGeometry width="50" height="50" relative="1" as="geometry">
            <mxPoint x="1590" y="880" as="sourcePoint" />
            <mxPoint x="1450" y="840" as="targetPoint" />
          </mxGeometry>
        </mxCell>
        <mxCell id="vEQTfBxCxNn2xn9pjMhN-213" value="" style="endArrow=none;html=1;rounded=0;exitX=0.5;exitY=0;exitDx=0;exitDy=0;entryX=0.5;entryY=1;entryDx=0;entryDy=0;" edge="1" parent="1" source="vEQTfBxCxNn2xn9pjMhN-206" target="vEQTfBxCxNn2xn9pjMhN-147">
          <mxGeometry width="50" height="50" relative="1" as="geometry">
            <mxPoint x="1400" y="770" as="sourcePoint" />
            <mxPoint x="1450" y="720" as="targetPoint" />
          </mxGeometry>
        </mxCell>
        <mxCell id="vEQTfBxCxNn2xn9pjMhN-214" value="" style="endArrow=none;html=1;rounded=0;exitX=0.5;exitY=0;exitDx=0;exitDy=0;entryX=0.5;entryY=1;entryDx=0;entryDy=0;" edge="1" parent="1" source="vEQTfBxCxNn2xn9pjMhN-206" target="vEQTfBxCxNn2xn9pjMhN-148">
          <mxGeometry width="50" height="50" relative="1" as="geometry">
            <mxPoint x="1140" y="770" as="sourcePoint" />
            <mxPoint x="1190" y="720" as="targetPoint" />
          </mxGeometry>
        </mxCell>
        <mxCell id="vEQTfBxCxNn2xn9pjMhN-215" value="" style="endArrow=none;html=1;rounded=0;exitX=0.5;exitY=0;exitDx=0;exitDy=0;entryX=0.5;entryY=1;entryDx=0;entryDy=0;" edge="1" parent="1" source="vEQTfBxCxNn2xn9pjMhN-207" target="vEQTfBxCxNn2xn9pjMhN-119">
          <mxGeometry width="50" height="50" relative="1" as="geometry">
            <mxPoint x="1180" y="770" as="sourcePoint" />
            <mxPoint x="1230" y="720" as="targetPoint" />
          </mxGeometry>
        </mxCell>
        <mxCell id="vEQTfBxCxNn2xn9pjMhN-206" value="want-to-work=1" style="ellipse;whiteSpace=wrap;html=1;aspect=fixed;" vertex="1" parent="1">
          <mxGeometry x="1360" y="760" width="80" height="80" as="geometry" />
        </mxCell>
        <mxCell id="vEQTfBxCxNn2xn9pjMhN-216" value="" style="endArrow=none;html=1;rounded=0;exitX=0.5;exitY=0;exitDx=0;exitDy=0;entryX=0.5;entryY=1;entryDx=0;entryDy=0;" edge="1" parent="1" source="vEQTfBxCxNn2xn9pjMhN-183" target="vEQTfBxCxNn2xn9pjMhN-206">
          <mxGeometry width="50" height="50" relative="1" as="geometry">
            <mxPoint x="790" y="1040" as="sourcePoint" />
            <mxPoint x="2120" y="520.0000000000002" as="targetPoint" />
          </mxGeometry>
        </mxCell>
      </root>
    </mxGraphModel>
  </diagram>
</mxfile>
